<?xml version="1.0" encoding="iso-8859-1"?>
<!-- Uploaded to: SVG Repo, www.svgrepo.com, Generator: SVG Repo Mixer Tools -->
<svg height="800px" width="800px" version="1.1" id="Layer_1" xmlns="http://www.w3.org/2000/svg" xmlns:xlink="http://www.w3.org/1999/xlink" 
	 viewBox="0 0 473.935 473.935" xml:space="preserve">
<circle style="fill:#3CB881;" cx="236.967" cy="236.967" r="236.967"/>
<path style="fill:#E4E1D3;" d="M370.085,181.166H103.82c-2.975,0-5.392,2.417-5.392,5.392v180.93c0,2.975,2.417,5.392,5.392,5.392
	h266.266c2.982,0,5.399-2.417,5.399-5.392V186.562C375.485,183.587,373.067,181.166,370.085,181.166z"/>
<path style="fill:#CB774C;" d="M393.984,189.914c-0.161-1.616-1.066-3.027-2.354-3.906l-67.79-57.399v-39.76
	c0-2.982-2.417-5.392-5.399-5.392h-25.594c-2.982,0-5.399,2.413-5.399,5.392v8.954l-50.896-43.098
	c-2.062-1.74-5.07-1.703-7.083,0.094L82.05,186.18c-0.21,0.168-0.404,0.344-0.584,0.535c-1.224,1.212-1.759,2.93-1.5,4.602v12.767
	c0,2.978,2.417,5.399,5.396,5.399h303.249c2.982,0,5.399-2.421,5.399-5.399V190.91C394.029,190.58,394.029,190.244,393.984,189.914z
	"/>
<path style="fill:#575757;" d="M306.108,295.631c-0.681-0.015-1.328-0.393-1.65-1.051c-6.776-13.815-13.803-21.092-20.501-20.857
	c-10.013,0.269-16.999,16.408-17.074,16.576c-0.393,0.95-1.489,1.399-2.447,0.984c-0.95-0.4-1.396-1.5-0.988-2.447
	c0.314-0.752,8.019-18.518,20.404-18.851c8.311-0.183,16.393,7.502,23.955,22.956c0.453,0.928,0.075,2.047-0.857,2.5
	C306.688,295.575,306.396,295.631,306.108,295.631z"/>
<path style="fill:#418068;" d="M292.084,261.147c-4.969-4.965-64.123-7.338-74.316,2.862L117.653,364.121
	c-10.196,10.193-9.575,21.201,0.621,31.394l39.996,40c10.204,10.204,20.58,10.189,30.776,0l100.115-100.115
	C299.351,325.203,297.049,266.112,292.084,261.147z M257.877,297.966c-3.97-3.97-3.97-10.391,0-14.361
	c3.97-3.966,10.398-3.97,14.361,0.004c3.97,3.966,3.97,10.38,0,14.357C268.267,301.936,261.843,301.936,257.877,297.966z"/>
<path style="fill:#24986B;" d="M289.584,260.896c-3.97-3.959-62.132-6.952-72.082,3.005l-98.315,98.312
	c-9.946,9.949-9.953,20.082,0,30.032l39.042,39.042c9.953,9.957,20.09,9.949,30.035,0l98.312-98.304
	C296.537,323.017,293.547,264.862,289.584,260.896z M256.051,296.439c-3.873-3.873-3.873-10.148-0.007-14.017
	c3.873-3.873,10.151-3.869,14.024,0.004c3.865,3.865,3.865,10.144-0.008,14.017C266.191,300.308,259.916,300.305,256.051,296.439z"
	/>
<path style="fill:#38A37C;" d="M266.251,280.088c1.388,0.471,2.705,1.224,3.817,2.339c3.865,3.865,3.865,10.144-0.008,14.017
	c-3.865,3.865-10.144,3.862-14.009-0.004c-1.257-1.254-2.062-2.773-2.507-4.37c-45.515,43.405-117.889,116.65-117.889,116.65
	l22.574,22.567c9.953,9.957,20.09,9.949,30.035,0l98.312-98.304c9.961-9.961,6.971-68.116,3.012-72.086
	C288.642,259.949,279.568,267.702,266.251,280.088z"/>
<path style="fill:#F3F0ED;" d="M263.175,275.485c-7.697,0.004-13.946,6.241-13.946,13.946c0,7.697,6.249,13.942,13.946,13.942
	c7.704,0,13.931-6.245,13.931-13.942C277.102,281.73,270.868,275.485,263.175,275.485z M263.175,299.328
	c-5.467,0-9.901-4.434-9.901-9.901c0-5.474,4.438-9.901,9.901-9.901s9.897,4.43,9.897,9.897
	C273.072,294.89,268.642,299.324,263.175,299.328z"/>
<path style="fill:#575757;" d="M377.483,209.488h-1.994v3.787c4.962,9.201,15.15,34.151,4.539,52.83
	c-1.25,2.2-2.814,4.217-4.539,6.133c-16.172,17.927-53.081,23.188-110.068,15.547c-1.036-0.202-1.972,0.58-2.107,1.605
	c-0.138,1.022,0.584,1.964,1.609,2.103c17.036,2.286,32.333,3.427,45.882,3.427c30.481-0.004,52.078-5.796,64.684-17.287
	c4.64-4.228,8.097-9.209,10.282-14.99C393.726,241.559,381.999,216.998,377.483,209.488z"/>
<path style="fill:#CAE7DA;" d="M149.451,371.387l-0.703-0.711c-8.135-8.131-7.775-19.921,0.891-28.576
	c8.658-8.659,20.172-8.928,28.303-0.804l0.707,0.715c8.127,8.127,7.768,19.91-0.804,28.486
	C169.192,379.152,157.593,379.515,149.451,371.387z M194.902,407.368c-1.504-1.519-2.047-3.297-2.133-6.963l-5.987-95.805
	c0-1.074,6.702-4.565,9.908-1.343c1.25,1.25,2.148,3.398,2.324,6.963l5.897,95.902C205.001,407.107,198.03,410.489,194.902,407.368z
	 M170.345,351.028l-1.328-1.332c-4.108-4.108-9.201-4.022-12.591-0.629c-3.487,3.48-3.487,8.303,0.715,12.498l1.336,1.343
	c4.116,4.101,9.107,4.101,12.591,0.621C174.461,360.136,174.461,355.133,170.345,351.028z M214.019,369.157l-0.715-0.707
	c-8.12-8.127-7.768-19.91,0.891-28.584c8.572-8.565,20.179-8.928,28.303-0.797l0.715,0.707c8.12,8.127,7.76,19.921-0.804,28.486
	C233.753,376.925,222.146,377.281,214.019,369.157z M234.906,348.794l-1.336-1.336c-4.108-4.108-9.28-4.108-12.681-0.715
	c-3.487,3.487-3.39,8.393,0.804,12.591l1.336,1.336c4.019,4.015,9.018,4.015,12.505,0.539
	C238.846,357.909,239.014,352.903,234.906,348.794z"/>
</svg>